Hermit-Italic.ufo
<glyph name="dollar" format="1">
  <advance width="618"/>
  <unicode hex="0024"/>
  <note>
    dollar
  </note>
  <outline>
    <contour>
      <point x="310" y="0" type="line"/>
      <point x="329" y="90" type="line"/>
      <point x="444" y="92"/>
      <point x="511" y="87"/>
      <point x="540" y="251" type="curve" smooth="yes"/>
      <point x="569" y="417"/>
      <point x="475" y="417"/>
      <point x="381" y="420" type="curve"/>
      <point x="414" y="570" type="line"/>
      <point x="476" y="568"/>
      <point x="502" y="543"/>
      <point x="493" y="496" type="curve"/>
      <point x="582" y="490" type="line"/>
      <point x="612" y="657"/>
      <point x="538" y="658"/>
      <point x="423" y="660" type="curve"/>
      <point x="442" y="750" type="line"/>
      <point x="352" y="750" type="line"/>
      <point x="333" y="660" type="line"/>
      <point x="219" y="658"/>
      <point x="151" y="663"/>
      <point x="122" y="499" type="curve" smooth="yes"/>
      <point x="93" y="333"/>
      <point x="188" y="333"/>
      <point x="281" y="330" type="curve"/>
      <point x="248" y="180" type="line"/>
      <point x="187" y="182"/>
      <point x="155" y="177"/>
      <point x="169" y="254" type="curve"/>
      <point x="80" y="260" type="line"/>
      <point x="50" y="93"/>
      <point x="125" y="92"/>
      <point x="239" y="90" type="curve"/>
      <point x="220" y="0" type="line"/>
    </contour>
    <contour>
      <point x="371" y="330" type="line"/>
      <point x="434" y="328"/>
      <point x="465" y="333"/>
      <point x="452" y="263" type="curve" smooth="yes"/>
      <point x="438" y="183"/>
      <point x="402" y="182"/>
      <point x="339" y="180" type="curve"/>
    </contour>
    <contour>
      <point x="229" y="422"/>
      <point x="197" y="417"/>
      <point x="210" y="487" type="curve" smooth="yes"/>
      <point x="224" y="567"/>
      <point x="261" y="568"/>
      <point x="324" y="570" type="curve"/>
      <point x="291" y="420" type="line"/>
    </contour>
  </outline>
</glyph>
<glyph name="plus" format="1">
  <advance width="618"/>
  <unicode hex="002B"/>
  <note>
    plus
  </note>
  <outline>
    <contour>
      <point x="324" y="80" type="line"/>
      <point x="360" y="285" type="line"/>
      <point x="546" y="285" type="line"/>
      <point x="562" y="375" type="line"/>
      <point x="376" y="375" type="line"/>
      <point x="412" y="580" type="line"/>
      <point x="322" y="580" type="line"/>
      <point x="286" y="375" type="line"/>
      <point x="100" y="375" type="line"/>
      <point x="84" y="285" type="line"/>
      <point x="270" y="285" type="line"/>
      <point x="234" y="80" type="line"/>
    </contour>
  </outline>
</glyph>
<glyph name="period" format="1">
  <advance width="618"/>
  <unicode hex="002E"/>
  <note>
    period
  </note>
  <outline>
    <contour>
      <point x="313" y="0"/>
      <point x="362" y="42"/>
      <point x="370" y="84" type="curve" smooth="yes"/>
      <point x="378" y="132"/>
      <point x="339" y="180"/>
      <point x="290" y="180" type="curve" smooth="yes"/>
      <point x="249" y="180"/>
      <point x="199" y="138"/>
      <point x="192" y="96" type="curve" smooth="yes"/>
      <point x="183" y="48"/>
      <point x="223" y="0"/>
      <point x="271" y="0" type="curve" smooth="yes"/>
    </contour>
  </outline>
</glyph>
<glyph name="zero" format="1">
  <advance width="618"/>
  <unicode hex="0030"/>
  <note>
    zero
  </note>
  <outline>
    <contour>
      <point x="408" y="0"/>
      <point x="495" y="-3"/>
      <point x="561" y="369" type="curve" smooth="yes"/>
      <point x="628" y="747"/>
      <point x="534" y="750"/>
      <point x="391" y="750" type="curve" smooth="yes"/>
      <point x="254" y="750"/>
      <point x="167" y="753"/>
      <point x="101" y="381" type="curve" smooth="yes"/>
      <point x="34" y="3"/>
      <point x="128" y="0"/>
      <point x="271" y="0" type="curve" smooth="yes"/>
    </contour>
    <contour>
      <point x="222" y="90"/>
      <point x="194" y="91"/>
      <point x="179" y="127" type="curve"/>
      <point x="491" y="503" type="line"/>
      <point x="487" y="469"/>
      <point x="482" y="429"/>
      <point x="473" y="381" type="curve" smooth="yes"/>
      <point x="422" y="93"/>
      <point x="368" y="90"/>
      <point x="275" y="90" type="curve" smooth="yes"/>
    </contour>
    <contour>
      <point x="175" y="280"/>
      <point x="180" y="321"/>
      <point x="189" y="369" type="curve" smooth="yes"/>
      <point x="240" y="657"/>
      <point x="294" y="660"/>
      <point x="388" y="660" type="curve" smooth="yes"/>
      <point x="442" y="660"/>
      <point x="468" y="659"/>
      <point x="483" y="623" type="curve"/>
      <point x="171" y="246" type="line"/>
    </contour>
  </outline>
</glyph>
<glyph name="two" format="1">
  <advance width="618"/>
  <unicode hex="0032"/>
  <note>
    two
  </note>
  <outline>
    <contour>
      <point x="496" y="0" type="line"/>
      <point x="512" y="90" type="line"/>
      <point x="194" y="88" type="line" smooth="yes"/>
      <point x="194" y="88"/>
      <point x="556" y="343"/>
      <point x="583" y="494" type="curve" smooth="yes"/>
      <point x="603" y="607"/>
      <point x="624" y="750"/>
      <point x="391" y="750" type="curve" smooth="yes"/>
      <point x="164" y="750"/>
      <point x="144" y="623"/>
      <point x="123" y="503" type="curve"/>
      <point x="212" y="497" type="line"/>
      <point x="224" y="567"/>
      <point x="244" y="660"/>
      <point x="388" y="660" type="curve" smooth="yes"/>
      <point x="524" y="660"/>
      <point x="507" y="575"/>
      <point x="495" y="506" type="curve" smooth="yes"/>
      <point x="473" y="378"/>
      <point x="110" y="140"/>
      <point x="48" y="92" type="curve"/>
      <point x="34" y="0" type="line"/>
    </contour>
  </outline>
</glyph>
<glyph name="seven" format="1">
  <advance width="618"/>
  <unicode hex="0037"/>
  <note>
    seven
  </note>
  <outline>
    <contour>
      <point x="135" y="0" type="line"/>
      <point x="628" y="750" type="line"/>
      <point x="166" y="750" type="line"/>
      <point x="150" y="660" type="line"/>
      <point x="467" y="660" type="line"/>
      <point x="33" y="0" type="line"/>
    </contour>
  </outline>
</glyph>
<glyph name="less" format="1">
  <advance width="618"/>
  <unicode hex="003C"/>
  <note>
    less
  </note>
  <outline>
    <contour>
      <point x="488" y="182" type="line"/>
      <point x="238" y="330" type="line"/>
      <point x="542" y="478" type="line"/>
      <point x="559" y="580" type="line"/>
      <point x="138" y="375" type="line"/>
      <point x="124" y="285" type="line"/>
      <point x="472" y="80" type="line"/>
    </contour>
  </outline>
</glyph>
<glyph name="D" format="1">
  <advance width="618"/>
  <unicode hex="0044"/>
  <note>
    D
  </note>
  <outline>
    <contour>
      <point x="268" y="0" type="line" smooth="yes"/>
      <point x="498" y="0"/>
      <point x="563" y="378"/>
      <point x="563" y="381" type="curve" smooth="yes"/>
      <point x="563" y="378"/>
      <point x="624" y="750"/>
      <point x="394" y="750" type="curve" smooth="yes"/>
      <point x="166" y="750" type="line"/>
      <point x="34" y="0" type="line"/>
    </contour>
    <contour>
      <point x="240" y="660" type="line"/>
      <point x="384" y="660" type="line" smooth="yes"/>
      <point x="524" y="660"/>
      <point x="471" y="372"/>
      <point x="471" y="369" type="curve" smooth="yes"/>
      <point x="471" y="372"/>
      <point x="418" y="90"/>
      <point x="278" y="90" type="curve" smooth="yes"/>
      <point x="140" y="90" type="line"/>
    </contour>
    <contour>
      <point x="331" y="375" type="move" name="center"/>
    </contour>
    <contour>
      <point x="265" y="0" type="move" name="bottom"/>
    </contour>
    <contour>
      <point x="397" y="750" type="move" name="top"/>
    </contour>
  </outline>
</glyph>
<glyph name="E" format="1">
  <advance width="618"/>
  <unicode hex="0045"/>
  <note>
    E
  </note>
  <outline>
    <contour>
      <point x="496" y="0" type="line"/>
      <point x="512" y="90" type="line"/>
      <point x="140" y="90" type="line"/>
      <point x="182" y="330" type="line"/>
      <point x="368" y="330" type="line"/>
      <point x="384" y="420" type="line"/>
      <point x="198" y="420" type="line"/>
      <point x="240" y="660" type="line"/>
      <point x="612" y="660" type="line"/>
      <point x="628" y="750" type="line"/>
      <point x="166" y="750" type="line"/>
      <point x="34" y="0" type="line"/>
    </contour>
    <contour>
      <point x="495" y="0" type="move" name="ogonek"/>
    </contour>
    <contour>
      <point x="397" y="750" type="move" name="top"/>
    </contour>
    <contour>
      <point x="108" y="750" type="move" name="topleft"/>
    </contour>
    <contour>
      <point x="265" y="0" type="move" name="bottom"/>
    </contour>
  </outline>
</glyph>
<glyph name="J" format="1">
  <advance width="618"/>
  <unicode hex="004A"/>
  <note>
    J
  </note>
  <outline>
    <contour>
      <point x="409" y="0"/>
      <point x="495" y="-3"/>
      <point x="539" y="247" type="curve" smooth="yes"/>
      <point x="628" y="750" type="line"/>
      <point x="397" y="750" type="line"/>
      <point x="381" y="660" type="line"/>
      <point x="522" y="660" type="line"/>
      <point x="451" y="253" type="line" smooth="yes"/>
      <point x="422" y="93"/>
      <point x="368" y="90"/>
      <point x="275" y="90" type="curve" smooth="yes"/>
      <point x="188" y="90"/>
      <point x="139" y="87"/>
      <point x="167" y="247" type="curve"/>
      <point x="79" y="253" type="line"/>
      <point x="34" y="3"/>
      <point x="127" y="0"/>
      <point x="271" y="0" type="curve" smooth="yes"/>
    </contour>
    <contour>
      <point x="397" y="750" type="move" name="top"/>
    </contour>
    <contour>
      <point x="265" y="0" type="move" name="bottom"/>
    </contour>
  </outline>
</glyph>
<glyph name="K" format="1">
  <advance width="618"/>
  <unicode hex="004B"/>
  <note>
    K
  </note>
  <outline>
    <contour>
      <point x="135" y="0" type="line"/>
      <point x="315" y="272" type="line"/>
      <point x="398" y="0" type="line"/>
      <point x="495" y="0" type="line"/>
      <point x="381" y="375" type="line"/>
      <point x="629" y="750" type="line"/>
      <point x="528" y="750" type="line"/>
      <point x="156" y="186" type="line"/>
      <point x="256" y="750" type="line"/>
      <point x="166" y="750" type="line"/>
      <point x="34" y="0" type="line"/>
    </contour>
    <contour>
      <point x="397" y="750" type="move" name="top"/>
    </contour>
    <contour>
      <point x="265" y="0" type="move" name="bottom"/>
    </contour>
  </outline>
</glyph>
<glyph name="N" format="1">
  <advance width="618"/>
  <unicode hex="004E"/>
  <note>
    N
  </note>
  <outline>
    <contour>
      <point x="124" y="0" type="line"/>
      <point x="224" y="564" type="line"/>
      <point x="397" y="0" type="line"/>
      <point x="496" y="0" type="line"/>
      <point x="628" y="750" type="line"/>
      <point x="538" y="750" type="line"/>
      <point x="438" y="186" type="line"/>
      <point x="265" y="750" type="line"/>
      <point x="166" y="750" type="line"/>
      <point x="34" y="0" type="line"/>
    </contour>
    <contour>
      <point x="397" y="750" type="move" name="top"/>
    </contour>
    <contour>
      <point x="265" y="0" type="move" name="bottom"/>
    </contour>
  </outline>
</glyph>
<glyph name="R" format="1">
  <advance width="618"/>
  <unicode hex="0052"/>
  <note>
    R
  </note>
  <outline>
    <contour>
      <point x="124" y="0" type="line"/>
      <point x="182" y="330" type="line"/>
      <point x="295" y="330" type="line"/>
      <point x="398" y="0" type="line"/>
      <point x="495" y="0" type="line"/>
      <point x="395" y="337" type="line"/>
      <point x="426" y="337"/>
      <point x="566" y="395"/>
      <point x="590" y="534" type="curve"/>
      <point x="591" y="537"/>
      <point x="624" y="750"/>
      <point x="394" y="750" type="curve" smooth="yes"/>
      <point x="166" y="750" type="line"/>
      <point x="34" y="0" type="line"/>
    </contour>
    <contour>
      <point x="240" y="660" type="line"/>
      <point x="384" y="660" type="line" smooth="yes"/>
      <point x="524" y="660"/>
      <point x="501" y="537"/>
      <point x="500" y="534" type="curve" smooth="yes"/>
      <point x="501" y="537"/>
      <point x="476" y="420"/>
      <point x="336" y="420" type="curve" smooth="yes"/>
      <point x="198" y="420" type="line"/>
    </contour>
    <contour>
      <point x="397" y="750" type="move" name="top"/>
    </contour>
    <contour>
      <point x="265" y="0" type="move" name="bottom"/>
    </contour>
  </outline>
</glyph>
<glyph name="bracketright" format="1">
  <advance width="618"/>
  <unicode hex="005D"/>
  <note>
    bracketright
  </note>
  <outline>
    <contour>
      <point x="441" y="-90" type="line"/>
      <point x="589" y="750" type="line"/>
      <point x="205" y="750" type="line"/>
      <point x="189" y="660" type="line"/>
      <point x="483" y="660" type="line"/>
      <point x="367" y="0" type="line"/>
      <point x="73" y="0" type="line"/>
      <point x="57" y="-90" type="line"/>
    </contour>
  </outline>
</glyph>
<glyph name="f" format="1">
  <advance width="618"/>
  <unicode hex="0066"/>
  <note>
    f
  </note>
  <outline>
    <contour>
      <point x="271" y="0" type="line"/>
      <point x="338" y="380" type="line"/>
      <point x="507" y="380" type="line"/>
      <point x="523" y="470" type="line"/>
      <point x="354" y="470" type="line"/>
      <point x="359" y="497" type="line" smooth="yes"/>
      <point x="381" y="627"/>
      <point x="418" y="660"/>
      <point x="495" y="660" type="curve"/>
      <point x="605" y="660" type="line"/>
      <point x="621" y="750" type="line"/>
      <point x="505" y="750" type="line"/>
      <point x="347" y="750"/>
      <point x="292" y="687"/>
      <point x="260" y="504" type="curve" smooth="yes"/>
      <point x="254" y="470" type="line"/>
      <point x="164" y="470" type="line"/>
      <point x="148" y="380" type="line"/>
      <point x="238" y="380" type="line"/>
      <point x="171" y="0" type="line"/>
    </contour>
    <contour>
      <point x="397" y="500" type="move" name="top"/>
    </contour>
    <contour>
      <point x="221" y="0" type="move" name="bottom"/>
    </contour>
  </outline>
</glyph>
<glyph name="n" format="1">
  <advance width="618"/>
  <unicode hex="006E"/>
  <note>
    n
  </note>
  <outline>
    <contour>
      <point x="124" y="0" type="line"/>
      <point x="171" y="267" type="line" smooth="yes"/>
      <point x="196" y="407"/>
      <point x="200" y="410"/>
      <point x="343" y="410" type="curve" smooth="yes"/>
      <point x="480" y="410"/>
      <point x="453" y="267"/>
      <point x="453" y="267" type="curve"/>
      <point x="406" y="0" type="line"/>
      <point x="496" y="0" type="line"/>
      <point x="543" y="267" type="line"/>
      <point x="543" y="267"/>
      <point x="580" y="500"/>
      <point x="347" y="500" type="curve" smooth="yes"/>
      <point x="120" y="500"/>
      <point x="123" y="503"/>
      <point x="82" y="273" type="curve" smooth="yes"/>
      <point x="34" y="0" type="line"/>
    </contour>
    <contour>
      <point x="353" y="500" type="move" name="top"/>
    </contour>
    <contour>
      <point x="265" y="0" type="move" name="bottom"/>
    </contour>
  </outline>
</glyph>
<glyph name="w" format="1">
  <advance width="618"/>
  <unicode hex="0077"/>
  <note>
    w
  </note>
  <outline>
    <contour>
      <point x="183" y="0" type="line"/>
      <point x="309" y="238" type="line"/>
      <point x="349" y="0" type="line"/>
      <point x="439" y="0" type="line"/>
      <point x="584" y="500" type="line"/>
      <point x="493" y="500" type="line"/>
      <point x="407" y="207" type="line"/>
      <point x="377" y="385" type="line"/>
      <point x="287" y="385" type="line"/>
      <point x="193" y="207" type="line"/>
      <point x="213" y="500" type="line"/>
      <point x="122" y="500" type="line"/>
      <point x="91" y="0" type="line"/>
    </contour>
    <contour>
      <point x="353" y="500" type="move" name="top"/>
    </contour>
    <contour>
      <point x="265" y="0" type="move" name="bottom"/>
    </contour>
  </outline>
</glyph>
<glyph name="z" format="1">
  <advance width="618"/>
  <unicode hex="007A"/>
  <note>
    z
  </note>
  <outline>
    <contour>
      <point x="496" y="0" type="line"/>
      <point x="512" y="90" type="line"/>
      <point x="224" y="90" type="line"/>
      <point x="585" y="500" type="line"/>
      <point x="122" y="500" type="line"/>
      <point x="106" y="410" type="line"/>
      <point x="394" y="410" type="line"/>
      <point x="33" y="0" type="line"/>
    </contour>
    <contour>
      <point x="353" y="500" type="move" name="top"/>
    </contour>
    <contour>
      <point x="265" y="0" type="move" name="bottom"/>
    </contour>
  </outline>
</glyph>
<glyph name="cent" format="1">
  <advance width="618"/>
  <unicode hex="00A2"/>
  <note>
    cent
  </note>
  <outline>
    <contour>
      <point x="310" y="0" type="line"/>
      <point x="335" y="125" type="line"/>
      <point x="421" y="128"/>
      <point x="522" y="146"/>
      <point x="545" y="281" type="curve"/>
      <point x="457" y="287" type="line"/>
      <point x="447" y="235"/>
      <point x="390" y="219"/>
      <point x="345" y="215" type="curve"/>
      <point x="407" y="533" type="line"/>
      <point x="451" y="529"/>
      <point x="497" y="519"/>
      <point x="488" y="467" type="curve"/>
      <point x="577" y="461" type="line"/>
      <point x="601" y="596"/>
      <point x="501" y="620"/>
      <point x="417" y="623" type="curve"/>
      <point x="442" y="750" type="line"/>
      <point x="352" y="750" type="line"/>
      <point x="326" y="621" type="line"/>
      <point x="209" y="603"/>
      <point x="125" y="519"/>
      <point x="101" y="380" type="curve" smooth="yes"/>
      <point x="75" y="235"/>
      <point x="135" y="145"/>
      <point x="246" y="127" type="curve"/>
      <point x="220" y="0" type="line"/>
    </contour>
    <contour>
      <point x="197" y="239"/>
      <point x="176" y="297"/>
      <point x="189" y="368" type="curve" smooth="yes"/>
      <point x="202" y="445"/>
      <point x="250" y="507"/>
      <point x="316" y="526" type="curve"/>
      <point x="256" y="220" type="line"/>
    </contour>
  </outline>
</glyph>
<glyph name="ordfeminine" format="1">
  <advance width="618"/>
  <unicode hex="00AA"/>
  <note>
    ordfeminine
  </note>
  <outline>
    <contour>
      <point x="523" y="375" type="line"/>
      <point x="561" y="593" type="line" smooth="yes"/>
      <point x="567" y="625"/>
      <point x="572" y="750"/>
      <point x="391" y="750" type="curve" smooth="yes"/>
      <point x="332" y="750"/>
      <point x="271" y="730"/>
      <point x="216" y="706" type="curve"/>
      <point x="245" y="647" type="line"/>
      <point x="284" y="663"/>
      <point x="322" y="682"/>
      <point x="391" y="682" type="curve" smooth="yes"/>
      <point x="450" y="682"/>
      <point x="501" y="671"/>
      <point x="489" y="599" type="curve"/>
      <point x="367" y="596" type="line" smooth="yes"/>
      <point x="250" y="596"/>
      <point x="176" y="583"/>
      <point x="160" y="492" type="curve" smooth="yes"/>
      <point x="144" y="405"/>
      <point x="217" y="375"/>
      <point x="334" y="375" type="curve" smooth="yes"/>
    </contour>
    <contour>
      <point x="493" y="205" type="line"/>
      <point x="509" y="295" type="line"/>
      <point x="125" y="295" type="line"/>
      <point x="109" y="205" type="line"/>
    </contour>
    <contour>
      <point x="280" y="442"/>
      <point x="225" y="440"/>
      <point x="233" y="480" type="curve" smooth="yes"/>
      <point x="241" y="526"/>
      <point x="313" y="530"/>
      <point x="362" y="530" type="curve" smooth="yes"/>
      <point x="476" y="530" type="line"/>
      <point x="461" y="442" type="line"/>
      <point x="340" y="442" type="line" smooth="yes"/>
    </contour>
  </outline>
</glyph>
<glyph name="periodcentered" format="1">
  <advance width="618"/>
  <unicode hex="00B7"/>
  <note>
    periodcentered
  </note>
  <outline>
    <contour>
      <point x="363" y="285"/>
      <point x="413" y="327"/>
      <point x="420" y="369" type="curve" smooth="yes"/>
      <point x="428" y="417"/>
      <point x="389" y="465"/>
      <point x="341" y="465" type="curve" smooth="yes"/>
      <point x="299" y="465"/>
      <point x="250" y="423"/>
      <point x="242" y="381" type="curve" smooth="yes"/>
      <point x="234" y="333"/>
      <point x="273" y="285"/>
      <point x="321" y="285" type="curve" smooth="yes"/>
    </contour>
  </outline>
</glyph>
<glyph name="guillemetright" format="1">
  <advance width="618"/>
  <unicode hex="00BB"/>
  <note>
    guillemotright
  </note>
  <outline>
    <contour>
      <point x="547" y="285" type="line"/>
      <point x="561" y="375" type="line"/>
      <point x="366" y="580" type="line"/>
      <point x="350" y="478" type="line"/>
      <point x="447" y="330" type="line"/>
      <point x="296" y="182" type="line"/>
      <point x="280" y="80" type="line"/>
    </contour>
    <contour>
      <point x="316" y="285" type="line"/>
      <point x="330" y="375" type="line"/>
      <point x="135" y="580" type="line"/>
      <point x="119" y="478" type="line"/>
      <point x="216" y="330" type="line"/>
      <point x="65" y="182" type="line"/>
      <point x="49" y="80" type="line"/>
    </contour>
  </outline>
</glyph>
<glyph name="idotless" format="1">
  <advance width="618"/>
  <unicode hex="0131"/>
  <outline>
    <contour>
      <point x="496" y="0" type="line"/>
      <point x="512" y="90" type="line"/>
      <point x="326" y="90" type="line"/>
      <point x="398" y="500" type="line"/>
      <point x="167" y="500" type="line"/>
      <point x="151" y="410" type="line"/>
      <point x="292" y="410" type="line"/>
      <point x="236" y="90" type="line"/>
      <point x="50" y="90" type="line"/>
      <point x="34" y="0" type="line"/>
    </contour>
    <contour>
      <point x="495" y="0" type="move" name="ogonek"/>
    </contour>
    <contour>
      <point x="265" y="0" type="move" name="bottom"/>
    </contour>
    <contour>
      <point x="353" y="500" type="move" name="top"/>
    </contour>
  </outline>
</glyph>
<glyph name="circumflexcomb" format="1">
  <advance width="618"/>
  <unicode hex="0302"/>
  <outline>
    <contour>
      <point x="267" y="545" type="line"/>
      <point x="385" y="667" type="line"/>
      <point x="457" y="545" type="line"/>
      <point x="551" y="545" type="line"/>
      <point x="441" y="750" type="line"/>
      <point x="351" y="750" type="line"/>
      <point x="168" y="545" type="line"/>
    </contour>
    <contour>
      <point x="352" y="500" type="move" name="_top"/>
    </contour>
  </outline>
</glyph>
<glyph name="dieresiscomb" format="1">
  <advance width="618"/>
  <unicode hex="0308"/>
  <outline>
    <contour>
      <point x="539" y="566"/>
      <point x="554" y="580"/>
      <point x="562" y="622" type="curve" smooth="yes"/>
      <point x="570" y="670"/>
      <point x="554" y="690"/>
      <point x="506" y="690" type="curve" smooth="yes"/>
      <point x="464" y="690"/>
      <point x="447" y="676"/>
      <point x="440" y="634" type="curve" smooth="yes"/>
      <point x="431" y="586"/>
      <point x="449" y="566"/>
      <point x="497" y="566" type="curve" smooth="yes"/>
    </contour>
    <contour>
      <point x="289" y="566"/>
      <point x="304" y="580"/>
      <point x="312" y="622" type="curve" smooth="yes"/>
      <point x="320" y="670"/>
      <point x="304" y="690"/>
      <point x="256" y="690" type="curve" smooth="yes"/>
      <point x="214" y="690"/>
      <point x="197" y="676"/>
      <point x="190" y="634" type="curve" smooth="yes"/>
      <point x="181" y="586"/>
      <point x="199" y="566"/>
      <point x="247" y="566" type="curve" smooth="yes"/>
    </contour>
    <contour>
      <point x="352" y="500" type="move" name="_top"/>
    </contour>
  </outline>
</glyph>
<glyph name="hungarumlautcomb" format="1">
  <advance width="618"/>
  <unicode hex="030B"/>
  <outline>
    <component base="acutecomb" xOffset="98"/>
    <component base="acutecomb" xOffset="-51"/>
    <contour>
      <point x="310" y="500" type="move" name="_top"/>
    </contour>
  </outline>
</glyph>
<glyph name="ogonekcomb" format="1">
  <advance width="618"/>
  <unicode hex="0328"/>
  <outline>
    <contour>
      <point x="383" y="-196" type="line"/>
      <point x="377" y="-134" type="line"/>
      <point x="304" y="-149" type="line" smooth="yes"/>
      <point x="240" y="-164"/>
      <point x="220" y="-129"/>
      <point x="243" y="-98" type="curve" smooth="yes"/>
      <point x="260" y="-68"/>
      <point x="334" y="-48"/>
      <point x="406" y="0" type="curve"/>
      <point x="330" y="0" type="line" smooth="yes"/>
      <point x="247" y="0"/>
      <point x="184" y="-47"/>
      <point x="171" y="-120" type="curve" smooth="yes"/>
      <point x="152" y="-229"/>
      <point x="245" y="-227"/>
      <point x="321" y="-211" type="curve" smooth="yes"/>
    </contour>
    <contour>
      <point x="406" y="0" type="move" name="_ogonek"/>
    </contour>
  </outline>
</glyph>
<glyph name="strokelongcomb" format="1">
  <advance width="618"/>
  <unicode hex="0336"/>
  <outline>
    <contour>
      <point x="653" y="448" type="line"/>
      <point x="669" y="538" type="line"/>
      <point x="51" y="538" type="line"/>
      <point x="35" y="448" type="line"/>
    </contour>
    <contour>
      <point x="308" y="250" type="move" name="_center"/>
    </contour>
  </outline>
</glyph>
<glyph name="uni25B4" format="1">
  <advance width="618"/>
  <unicode hex="25B4"/>
  <note>
    uni25B4
  </note>
  <outline>
    <contour>
      <point x="484" y="200" type="line"/>
      <point x="309" y="550" type="line"/>
      <point x="134" y="200" type="line"/>
    </contour>
  </outline>
</glyph>
<glyph name="uni25BD" format="1">
  <advance width="618"/>
  <unicode hex="25BD"/>
  <note>
    uni25BD
  </note>
  <outline>
    <contour>
      <point x="618" y="617" type="line"/>
      <point x="0" y="617" type="line"/>
      <point x="309" y="0" type="line"/>
    </contour>
    <contour>
      <point x="97" y="557" type="line"/>
      <point x="521" y="557" type="line"/>
      <point x="309" y="136" type="line"/>
    </contour>
  </outline>
</glyph>
<glyph name="uni25FD" format="1">
  <advance width="618"/>
  <unicode hex="25FD"/>
  <note>
    uni25FD
  </note>
  <outline>
    <contour>
      <point x="484" y="200" type="line"/>
      <point x="484" y="550" type="line"/>
      <point x="134" y="550" type="line"/>
      <point x="134" y="200" type="line"/>
    </contour>
    <contour>
      <point x="174" y="510" type="line"/>
      <point x="444" y="510" type="line"/>
      <point x="444" y="240" type="line"/>
      <point x="174" y="240" type="line"/>
    </contour>
  </outline>
</glyph>
